<svg xmlns="http://www.w3.org/2000/svg" xmlns:xlink="http://www.w3.org/1999/xlink" width="1200" zoomAndPan="magnify" viewBox="0 0 900 899.99999" height="1200" preserveAspectRatio="xMidYMid meet" version="1.0"><defs><clipPath id="16c7b13c4f"><path d="M 82.640625 13.761719 L 427.808594 13.761719 L 427.808594 887 L 82.640625 887 Z M 82.640625 13.761719 " clip-rule="nonzero"/></clipPath><clipPath id="6a284243ca"><path d="M 157.640625 13.761719 L 352.808594 13.761719 C 394.230469 13.761719 427.808594 47.339844 427.808594 88.761719 L 427.808594 811.238281 C 427.808594 852.660156 394.230469 886.238281 352.808594 886.238281 L 157.640625 886.238281 C 116.21875 886.238281 82.640625 852.660156 82.640625 811.238281 L 82.640625 88.761719 C 82.640625 47.339844 116.21875 13.761719 157.640625 13.761719 Z M 157.640625 13.761719 " clip-rule="nonzero"/></clipPath><clipPath id="a056d4376b"><path d="M 0.640625 0.761719 L 345.808594 0.761719 L 345.808594 873.320312 L 0.640625 873.320312 Z M 0.640625 0.761719 " clip-rule="nonzero"/></clipPath><clipPath id="b463a5bac1"><path d="M 75.640625 0.761719 L 270.808594 0.761719 C 312.230469 0.761719 345.808594 34.339844 345.808594 75.761719 L 345.808594 798.238281 C 345.808594 839.660156 312.230469 873.238281 270.808594 873.238281 L 75.640625 873.238281 C 34.21875 873.238281 0.640625 839.660156 0.640625 798.238281 L 0.640625 75.761719 C 0.640625 34.339844 34.21875 0.761719 75.640625 0.761719 Z M 75.640625 0.761719 " clip-rule="nonzero"/></clipPath><clipPath id="e0564bed33"><rect x="0" width="346" y="0" height="874"/></clipPath><clipPath id="dae9b0d332"><path d="M 374.007812 13.761719 L 817.359375 13.761719 L 817.359375 457.113281 L 374.007812 457.113281 Z M 374.007812 13.761719 " clip-rule="nonzero"/></clipPath><clipPath id="1686752b01"><path d="M 595.683594 13.761719 C 473.257812 13.761719 374.007812 113.007812 374.007812 235.4375 C 374.007812 357.867188 473.257812 457.113281 595.683594 457.113281 C 718.113281 457.113281 817.359375 357.867188 817.359375 235.4375 C 817.359375 113.007812 718.113281 13.761719 595.683594 13.761719 Z M 595.683594 13.761719 " clip-rule="nonzero"/></clipPath><clipPath id="bb07b7f5b5"><path d="M 0.0078125 0.761719 L 443.359375 0.761719 L 443.359375 444.113281 L 0.0078125 444.113281 Z M 0.0078125 0.761719 " clip-rule="nonzero"/></clipPath><clipPath id="36fd11f4e1"><path d="M 221.683594 0.761719 C 99.257812 0.761719 0.0078125 100.007812 0.0078125 222.4375 C 0.0078125 344.867188 99.257812 444.113281 221.683594 444.113281 C 344.113281 444.113281 443.359375 344.867188 443.359375 222.4375 C 443.359375 100.007812 344.113281 0.761719 221.683594 0.761719 Z M 221.683594 0.761719 " clip-rule="nonzero"/></clipPath><clipPath id="99eff0c4d5"><rect x="0" width="444" y="0" height="445"/></clipPath><clipPath id="809c1fef9e"><path d="M 374.007812 442.886719 L 817.359375 442.886719 L 817.359375 886.238281 L 374.007812 886.238281 Z M 374.007812 442.886719 " clip-rule="nonzero"/></clipPath><clipPath id="dcd1c9a381"><path d="M 595.683594 442.886719 C 473.257812 442.886719 374.007812 542.132812 374.007812 664.5625 C 374.007812 786.992188 473.257812 886.238281 595.683594 886.238281 C 718.113281 886.238281 817.359375 786.992188 817.359375 664.5625 C 817.359375 542.132812 718.113281 442.886719 595.683594 442.886719 Z M 595.683594 442.886719 " clip-rule="nonzero"/></clipPath><clipPath id="3a6c1cee32"><path d="M 0.0078125 0.886719 L 443.359375 0.886719 L 443.359375 444.238281 L 0.0078125 444.238281 Z M 0.0078125 0.886719 " clip-rule="nonzero"/></clipPath><clipPath id="e24ddbe7cf"><path d="M 221.683594 0.886719 C 99.257812 0.886719 0.0078125 100.132812 0.0078125 222.5625 C 0.0078125 344.992188 99.257812 444.238281 221.683594 444.238281 C 344.113281 444.238281 443.359375 344.992188 443.359375 222.5625 C 443.359375 100.132812 344.113281 0.886719 221.683594 0.886719 Z M 221.683594 0.886719 " clip-rule="nonzero"/></clipPath><clipPath id="b2772e2bbb"><rect x="0" width="444" y="0" height="445"/></clipPath></defs><g clip-path="url(#16c7b13c4f)"><g clip-path="url(#6a284243ca)"><g transform="matrix(1, 0, 0, 1, 82, 13)"><g clip-path="url(#e0564bed33)"><g clip-path="url(#a056d4376b)"><g clip-path="url(#b463a5bac1)"><path fill="#00bf63" d="M 0.640625 0.761719 L 345.808594 0.761719 L 345.808594 873.128906 L 0.640625 873.128906 Z M 0.640625 0.761719 " fill-opacity="1" fill-rule="nonzero"/></g></g></g></g></g></g><g clip-path="url(#dae9b0d332)"><g clip-path="url(#1686752b01)"><g transform="matrix(1, 0, 0, 1, 374, 13)"><g clip-path="url(#99eff0c4d5)"><g clip-path="url(#bb07b7f5b5)"><g clip-path="url(#36fd11f4e1)"><path fill="#00bf63" d="M 0.0078125 0.761719 L 443.359375 0.761719 L 443.359375 444.113281 L 0.0078125 444.113281 Z M 0.0078125 0.761719 " fill-opacity="1" fill-rule="nonzero"/></g></g></g></g></g></g><g clip-path="url(#809c1fef9e)"><g clip-path="url(#dcd1c9a381)"><g transform="matrix(1, 0, 0, 1, 374, 442)"><g clip-path="url(#b2772e2bbb)"><g clip-path="url(#3a6c1cee32)"><g clip-path="url(#e24ddbe7cf)"><path fill="#00bf63" d="M 0.0078125 0.886719 L 443.359375 0.886719 L 443.359375 444.238281 L 0.0078125 444.238281 Z M 0.0078125 0.886719 " fill-opacity="1" fill-rule="nonzero"/></g></g></g></g></g></g></svg>